<svg width="8765" height="1194" viewBox="0 0 8765 1194" fill="none" xmlns="http://www.w3.org/2000/svg">
<path d="M0.752004 918.344V30.664L270.56 6.13593C276.011 5.35727 281.072 4.96794 285.744 4.96794C290.416 4.96794 295.477 4.96794 300.928 4.96794C358.549 4.96794 419.675 20.5413 484.304 51.688C531.024 74.2693 568.789 103.859 597.6 140.456C626.411 176.275 640.816 220.659 640.816 273.608C640.816 318.771 632.64 356.925 616.288 388.072C599.936 418.44 578.133 441.8 550.88 458.152C586.699 465.939 618.235 487.352 645.488 522.392C673.52 556.653 687.536 606.099 687.536 670.728C687.536 719.005 677.024 763.389 656 803.88C634.976 844.371 603.829 877.853 562.56 904.328C522.069 930.024 471.845 945.597 411.888 951.048L117.552 976.744L0.752004 918.344ZM293.92 882.136C351.541 876.685 399.819 861.501 438.752 836.584C478.464 811.667 508.443 779.741 528.688 740.808C548.933 701.096 559.056 658.269 559.056 612.328C559.056 567.944 551.659 530.957 536.864 501.368C522.848 471.779 503.771 449.587 479.632 434.792C456.272 419.219 430.576 410.264 402.544 407.928L401.376 403.256C436.416 387.683 463.669 364.323 483.136 333.176C502.603 302.029 512.336 262.707 512.336 215.208C512.336 157.587 493.259 110.088 455.104 72.712C417.728 35.3359 366.336 16.6479 300.928 16.6479C296.256 16.6479 291.195 16.6479 285.744 16.6479C281.072 16.6479 276.4 17.0373 271.728 17.816L12.432 41.176V906.664L293.92 882.136ZM188.8 190.68L241.36 186.008C245.253 185.229 249.147 184.84 253.04 184.84C256.933 184.84 260.437 184.84 263.552 184.84C290.805 184.84 310.661 191.069 323.12 203.528C335.579 215.208 341.808 233.507 341.808 258.424C341.808 314.488 307.936 345.635 240.192 351.864L188.8 356.536V190.68ZM293.92 325C318.059 313.32 330.128 291.128 330.128 258.424C330.128 256.088 330.128 253.752 330.128 251.416C330.128 249.08 329.739 246.744 328.96 244.408L293.92 247.912V325ZM188.8 521.224L267.056 514.216C270.171 514.216 272.896 514.216 275.232 514.216C277.568 513.437 280.293 513.048 283.408 513.048C312.997 513.048 337.136 520.835 355.824 536.408C374.512 551.981 383.856 574.952 383.856 605.32C383.856 675.4 349.205 713.165 279.904 718.616L188.8 726.792V521.224ZM317.28 698.76C353.877 683.187 372.176 652.04 372.176 605.32C372.176 601.427 371.787 597.923 371.008 594.808C371.008 591.693 370.619 588.579 369.84 585.464L317.28 590.136V698.76ZM779.334 912.504V271.272L967.382 253.752L996.582 267.768C1019.94 244.408 1047.19 231.56 1078.34 229.224H1093.53C1106.76 229.224 1119.22 230.392 1130.9 232.728C1142.58 234.285 1153.87 236.232 1164.77 238.568L1281.57 296.968L1303.77 497.864C1267.95 483.848 1237.58 476.84 1212.66 476.84C1208.77 476.84 1204.49 476.84 1199.81 476.84C1195.92 476.84 1192.03 477.229 1188.13 478.008C1169.45 479.565 1152.31 486.573 1136.74 499.032C1121.17 511.491 1108.71 527.453 1099.37 546.92C1090.8 565.608 1086.52 585.075 1086.52 605.32V953.384L896.133 970.904L779.334 912.504ZM958.038 546.92C958.038 524.339 963.099 502.925 973.222 482.68C983.344 461.656 996.971 444.525 1014.1 431.288C1031.23 417.272 1049.92 409.485 1070.17 407.928C1074.84 407.149 1079.51 406.76 1084.18 406.76C1088.85 406.76 1093.14 406.76 1097.03 406.76C1111.05 406.76 1123.89 408.317 1135.57 411.432C1148.03 413.768 1160.49 417.272 1172.95 421.944L1153.09 249.08C1146.09 247.523 1137.52 245.965 1127.4 244.408C1117.27 242.072 1105.98 240.904 1093.53 240.904H1079.51C1052.26 243.24 1026.95 255.699 1003.59 278.28C981.008 300.083 966.214 328.115 959.206 362.376H955.702V266.6L791.014 281.784V900.824L958.038 885.64V546.92ZM1363.47 905.496V263.096L1442.89 257.256L1361.13 216.376V17.816L1556.19 1.46399L1672.99 59.8639V258.424L1590.06 265.432L1669.49 305.144V946.376L1480.27 962.728L1363.47 905.496ZM1372.81 28.328V203.528L1544.51 189.512V14.312L1372.81 28.328ZM1375.15 273.608V892.648L1541.01 878.632V259.592L1375.15 273.608ZM1635.83 951.048C1687.23 946.376 1724.6 940.925 1747.96 934.696C1771.32 928.467 1785.73 918.733 1791.18 905.496C1797.41 892.259 1800.52 872.792 1800.52 847.096V264.264L1876.44 257.256L1797.02 217.544V17.816L1992.07 0.295934L2108.87 58.6959V258.424L2025.95 264.264L2107.71 305.144V933.528C2107.71 1018.4 2081.23 1079.92 2028.28 1118.07C1976.11 1157.01 1901.36 1181.14 1804.03 1190.49L1687.23 1132.09L1635.83 951.048ZM1808.7 28.328V204.696L1980.39 189.512V13.144L1808.7 28.328ZM1812.2 274.776V847.096C1812.2 875.128 1809.09 896.541 1802.86 911.336C1797.41 926.131 1783.39 936.643 1760.81 942.872C1739.01 949.88 1702.8 955.72 1652.19 960.392L1696.57 1119.24C1785.34 1110.67 1854.64 1088.09 1904.47 1051.5C1954.31 1015.68 1979.23 957.277 1979.23 876.296V259.592L1812.2 274.776ZM2860.03 752.488C2839.01 817.896 2807.86 870.845 2766.59 911.336C2726.1 951.827 2670.82 975.187 2600.74 981.416C2592.17 982.195 2583.61 982.584 2575.04 982.584C2567.26 983.363 2559.08 983.752 2550.51 983.752C2482.77 983.752 2421.64 969.736 2367.14 941.704C2313.41 914.451 2270.58 873.181 2238.66 817.896C2206.73 762.611 2190.77 694.088 2190.77 612.328C2190.77 540.691 2202.84 478.787 2226.98 426.616C2251.9 374.445 2285.38 333.565 2327.43 303.976C2370.25 273.608 2418.92 256.088 2473.43 251.416C2478.88 250.637 2484.33 250.248 2489.78 250.248C2496.01 250.248 2501.85 250.248 2507.3 250.248C2550.9 250.248 2593.73 258.035 2635.78 273.608C2678.6 288.403 2717.15 311.763 2751.41 343.688C2786.45 375.613 2814.09 416.883 2834.34 467.496C2855.36 517.331 2865.87 577.288 2865.87 647.368C2865.87 653.597 2865.87 660.216 2865.87 667.224C2865.87 673.453 2865.48 679.683 2864.71 685.912L2742.07 696.424L2860.03 752.488ZM2584.39 662.552C2577.38 689.027 2564.53 710.829 2545.84 727.96C2527.15 745.091 2503.02 755.213 2473.43 758.328H2464.08C2437.61 758.328 2415.8 748.595 2398.67 729.128C2381.54 709.661 2372.98 682.797 2372.98 648.536L2736.23 617C2737 609.213 2737.39 601.816 2737.39 594.808C2737.39 587.021 2737.39 579.624 2737.39 572.616C2737.39 474.504 2716.37 398.195 2674.32 343.688C2632.27 289.181 2574.26 261.928 2500.29 261.928C2496.4 261.928 2492.11 261.928 2487.44 261.928C2483.55 261.928 2479.27 262.317 2474.59 263.096C2422.42 266.989 2375.7 283.731 2334.43 313.32C2293.16 342.131 2260.85 381.843 2237.49 432.456C2214.13 483.069 2202.45 543.027 2202.45 612.328C2202.45 712.776 2225.03 787.917 2270.19 837.752C2315.36 887.587 2375.31 912.504 2450.07 912.504C2455.52 912.504 2460.97 912.504 2466.42 912.504C2471.87 912.504 2477.32 912.115 2482.77 911.336C2549.74 905.885 2602.68 884.083 2641.62 845.928C2681.33 807.773 2709.75 760.275 2726.88 703.432L2584.39 662.552ZM2378.82 517.72C2378.82 492.024 2387.77 469.832 2405.68 451.144C2423.59 432.456 2446.56 421.944 2474.59 419.608H2485.11C2508.47 419.608 2527.54 426.616 2542.34 440.632C2557.91 453.869 2565.7 474.115 2565.7 501.368L2378.82 517.72ZM2473.43 720.952C2473.43 724.845 2474.98 728.739 2478.1 732.632C2481.99 736.525 2485.88 740.419 2489.78 744.312C2503.79 740.419 2514.7 735.747 2522.48 730.296C2530.27 724.845 2536.89 719.395 2542.34 713.944L2473.43 720.952ZM3388 549.256C3433.94 571.837 3470.93 599.869 3498.96 633.352C3527.77 666.835 3542.17 705.768 3542.17 750.152C3542.17 816.339 3521.15 869.288 3479.1 909C3437.83 949.491 3375.54 973.24 3292.22 980.248C3285.21 981.027 3278.21 981.416 3271.2 981.416C3264.19 982.195 3257.18 982.584 3250.17 982.584C3166.08 982.584 3094.05 961.56 3034.09 919.512C2974.91 877.464 2932.87 819.453 2907.95 745.48L3057.45 654.376C3016.96 635.688 2986.21 612.717 2965.18 585.464C2944.16 557.432 2933.65 522.003 2933.65 479.176V475.672C2934.42 436.739 2944.16 400.92 2962.85 368.216C2981.53 335.512 3008.4 308.648 3043.44 287.624C3078.48 265.821 3120.14 252.973 3168.41 249.08C3174.64 248.301 3180.48 247.912 3185.93 247.912C3192.16 247.912 3198 247.912 3203.45 247.912C3239.27 247.912 3275.48 252.973 3312.08 263.096C3348.67 272.44 3382.94 286.845 3414.86 306.312C3446.79 325 3473.26 349.139 3494.29 378.728C3515.31 407.539 3528.16 441.411 3532.83 480.344L3388 549.256ZM3163.74 757.16C3138.05 757.16 3115.46 748.595 3096 731.464C3077.31 714.333 3063.68 693.699 3055.12 669.56L2923.13 751.32C2958.17 857.997 3030.59 911.336 3140.38 911.336C3145.83 911.336 3151.28 911.336 3156.73 911.336C3162.96 911.336 3168.8 910.947 3174.25 910.168C3253.68 903.939 3313.25 882.136 3352.96 844.76C3393.45 806.605 3413.69 755.603 3413.69 691.752C3413.69 635.688 3399.68 594.029 3371.65 566.776C3344.39 538.744 3296.11 518.499 3226.81 506.04L3166.08 495.528C3145.05 491.635 3128.31 487.352 3115.85 482.68C3104.17 477.229 3098.33 467.496 3098.33 453.48V449.976C3099.89 437.517 3106.51 427.005 3118.19 418.44C3129.87 409.875 3147.39 404.813 3170.75 403.256H3180.09C3202.67 403.256 3222.14 410.264 3238.49 424.28C3255.62 437.517 3266.91 455.427 3272.37 478.008L3402.01 416.104C3391.89 366.269 3369.7 327.725 3335.44 300.472C3301.18 273.219 3256.4 259.592 3201.12 259.592C3195.67 259.592 3190.22 259.592 3184.77 259.592C3180.09 259.592 3175.03 259.981 3169.58 260.76C3123.64 264.653 3083.54 276.723 3049.28 296.968C3015.79 317.213 2990.1 342.909 2972.19 374.056C2954.28 404.424 2945.33 438.296 2945.33 475.672C2945.33 527.843 2958.95 567.555 2986.21 594.808C3013.46 621.283 3056.67 638.803 3115.85 647.368L3182.43 656.712C3207.35 659.827 3225.26 666.056 3236.16 675.4C3247.84 684.744 3253.68 696.035 3253.68 709.272C3253.68 724.067 3247.06 735.357 3233.82 743.144C3220.58 750.152 3199.95 754.824 3171.92 757.16H3163.74ZM3259.52 471C3257.18 470.221 3253.29 469.832 3247.84 469.832C3237.71 469.832 3228.37 472.557 3219.81 478.008C3211.24 483.459 3205.79 488.131 3203.45 492.024C3223.7 495.139 3243.17 499.421 3261.85 504.872C3281.32 509.544 3299.62 514.995 3316.75 521.224L3264.19 494.36L3259.52 471ZM3177.76 710.44C3180.09 715.891 3182.43 721.731 3184.77 727.96C3187.1 733.411 3189.83 738.472 3192.94 743.144C3220.97 739.251 3236.94 731.075 3240.83 718.616C3240.83 718.616 3239.27 717.059 3236.16 713.944C3233.82 710.829 3231.1 708.883 3227.98 708.104C3203.84 701.875 3181.26 696.035 3160.24 690.584C3139.21 685.133 3119.75 679.293 3101.84 673.064L3177.76 710.44ZM3937.08 903.16V536.408C3926.95 548.088 3920.72 559.768 3918.39 571.448V959.224L3740.85 975.576L3624.05 917.176V30.664L3813.27 14.312L3930.07 72.712V245.576C3932.4 245.576 3934.74 245.576 3937.08 245.576C3939.41 244.797 3941.75 244.408 3944.08 244.408C3947.98 244.408 3951.48 244.408 3954.6 244.408C3958.49 243.629 3962.38 243.24 3966.28 243.24C4001.32 243.24 4035.19 249.08 4067.89 260.76C4101.37 271.661 4131.35 287.235 4157.83 307.48C4184.3 326.947 4205.33 350.696 4220.9 378.728C4236.47 405.981 4244.26 435.96 4244.26 468.664V944.04L4053.88 960.392L3937.08 903.16ZM4115.78 410.264C4115.78 356.536 4101.37 317.213 4072.56 292.296C4043.75 267.379 4008.32 254.92 3966.28 254.92C3963.16 254.92 3959.66 254.92 3955.76 254.92C3952.65 254.92 3949.15 255.309 3945.25 256.088C3908.65 259.203 3878.29 271.272 3854.15 292.296C3830.79 312.541 3814.83 335.901 3806.26 362.376H3801.59V27.1599L3635.73 41.176V905.496L3801.59 891.48V511.88C3805.48 492.413 3814.83 474.893 3829.62 459.32C3844.41 443.747 3862.71 435.181 3884.52 433.624H3891.52C3907.88 433.624 3921.5 439.464 3932.4 451.144C3943.31 462.045 3948.76 479.955 3948.76 504.872V890.312L4115.78 875.128V410.264ZM4960.24 903.16V958.056L4772.2 975.576L4661.24 917.176V973.24L4470.85 989.592L4354.05 931.192V289.96L4532.76 274.776L4564.29 302.808C4576.75 291.128 4591.93 281.395 4609.84 273.608C4627.75 265.043 4646.05 259.981 4664.74 258.424C4667.85 258.424 4670.58 258.424 4672.92 258.424C4676.03 257.645 4679.15 257.256 4682.26 257.256C4714.19 257.256 4743.77 264.653 4771.03 279.448C4799.06 294.243 4820.47 310.984 4835.27 329.672C4846.17 309.427 4862.52 290.739 4884.32 273.608C4906.13 255.699 4932.6 245.576 4963.75 243.24C4967.64 243.24 4971.53 243.24 4975.43 243.24C4980.1 242.461 4984.77 242.072 4989.44 242.072C5036.94 242.072 5081.33 251.027 5122.6 268.936C5163.87 286.845 5196.96 312.931 5221.88 347.192C5247.57 380.675 5260.42 421.555 5260.42 469.832V945.208L5070.04 960.392L4960.24 903.16ZM5131.94 411.432C5131.94 357.704 5117.92 317.992 5089.89 292.296C5061.86 266.6 5026.82 253.752 4984.77 253.752C4981.66 253.752 4978.54 254.141 4975.43 254.92C4972.31 254.92 4968.81 254.92 4964.92 254.92C4940 257.256 4917.81 265.043 4898.34 278.28C4879.65 291.517 4864.47 307.48 4852.79 326.168C4841.11 344.856 4832.93 363.933 4828.26 383.4L4824.76 382.232C4818.53 354.2 4803.73 328.504 4780.37 305.144C4757.79 281.005 4725.48 268.936 4683.43 268.936C4680.31 268.936 4677.2 269.325 4674.08 270.104C4671.75 270.104 4669.02 270.104 4665.91 270.104C4627.75 273.219 4596.22 288.013 4571.3 314.488C4546.38 340.963 4530.81 370.941 4524.58 404.424L4521.08 405.592V287.624L4365.73 300.472V918.344L4532.76 905.496V523.56C4536.65 504.093 4544.44 486.573 4556.12 471C4568.57 455.427 4585.32 446.861 4606.34 445.304H4614.52C4630.87 445.304 4643.72 451.144 4653.06 462.824C4662.4 473.725 4667.08 492.024 4667.08 517.72V905.496L4831.76 890.312V508.376C4835.66 489.688 4843.44 472.557 4855.12 456.984C4867.58 441.411 4883.93 432.845 4904.18 431.288H4912.36C4929.49 431.288 4942.33 436.739 4950.9 447.64C4960.24 458.541 4964.92 476.84 4964.92 502.536V890.312L5131.94 876.296V411.432ZM5747.61 980.248C5739.83 981.027 5731.65 981.416 5723.09 981.416C5715.3 982.195 5707.12 982.584 5698.56 982.584C5628.48 982.584 5566.57 968.179 5512.85 939.368C5459.12 910.557 5417.07 868.509 5386.7 813.224C5357.11 757.16 5342.32 689.805 5342.32 611.16C5342.32 549.645 5352.44 492.803 5372.69 440.632C5393.71 387.683 5425.25 344.077 5467.29 309.816C5510.12 275.555 5563.85 255.699 5628.48 250.248C5634.71 249.469 5640.94 249.08 5647.17 249.08C5653.39 249.08 5659.62 249.08 5665.85 249.08C5715.69 249.08 5762.41 258.035 5806.01 275.944C5850.4 293.853 5889.33 319.16 5922.81 351.864C5957.07 384.568 5983.94 423.891 6003.41 469.832C6022.87 514.995 6032.61 565.219 6032.61 620.504C6032.61 682.019 6022.09 739.251 6001.07 792.2C5980.82 844.371 5949.68 887.197 5907.63 920.68C5865.58 954.163 5812.24 974.019 5747.61 980.248ZM5629.65 910.168C5691.94 904.717 5743.33 885.64 5783.82 852.936C5824.31 820.232 5854.29 778.573 5873.76 727.96C5894 676.568 5904.13 621.283 5904.13 562.104C5904.13 505.261 5895.17 454.259 5877.26 409.096C5860.13 363.933 5833.27 328.115 5796.67 301.64C5760.85 274.387 5714.91 260.76 5658.85 260.76C5654.17 260.76 5649.5 260.76 5644.83 260.76C5640.16 260.76 5635.1 261.149 5629.65 261.928C5567.35 267.379 5515.57 286.845 5474.3 320.328C5433.81 353.032 5403.44 394.691 5383.2 445.304C5363.73 495.917 5354 551.203 5354 611.16C5354 667.224 5362.95 718.227 5380.86 764.168C5398.77 809.331 5426.02 845.149 5462.62 871.624C5499.22 898.099 5545.16 911.336 5600.45 911.336C5605.12 911.336 5609.79 911.336 5614.46 911.336C5619.13 911.336 5624.19 910.947 5629.65 910.168ZM5619.13 748.984C5590.32 748.984 5567.74 736.525 5551.39 711.608C5535.82 686.691 5528.03 648.147 5528.03 595.976C5528.03 541.469 5536.98 500.589 5554.89 473.336C5572.8 445.304 5597.72 429.731 5629.65 426.616H5640.16C5668.97 426.616 5691.16 439.075 5706.73 463.992C5722.31 488.131 5730.09 525.896 5730.09 577.288C5730.09 631.795 5721.14 673.453 5703.23 702.264C5686.1 730.296 5661.57 745.869 5629.65 748.984H5619.13ZM5663.52 726.792C5700.11 706.547 5718.41 656.712 5718.41 577.288C5718.41 550.035 5716.08 526.675 5711.41 507.208C5691.16 510.323 5676.75 524.339 5668.19 549.256C5660.4 573.395 5656.51 608.435 5656.51 654.376C5656.51 682.408 5658.85 706.547 5663.52 726.792ZM6514.66 941.704C6506.1 949.491 6492.47 956.888 6473.78 963.896C6455.87 970.904 6436.4 975.187 6415.38 976.744C6411.49 977.523 6407.2 977.912 6402.53 977.912C6397.86 977.912 6393.58 977.912 6389.68 977.912C6358.54 977.912 6326.61 973.629 6293.91 965.064C6261.98 957.277 6232.39 944.429 6205.14 926.52C6177.89 909.389 6155.7 886.808 6138.56 858.776C6122.21 829.965 6114.04 795.704 6114.04 755.992V278.28L6304.42 261.928L6409.54 313.32V702.264C6413.43 698.371 6416.94 696.035 6420.05 695.256C6423.95 693.699 6427.45 690.195 6430.56 684.744V261.928L6619.78 245.576L6736.58 303.976V946.376L6556.71 961.56L6514.66 941.704ZM6442.24 272.44V687.08C6434.46 701.875 6423.95 713.944 6410.71 723.288C6398.25 731.853 6381.12 737.304 6359.32 739.64H6353.48C6337.12 739.64 6322.72 734.189 6310.26 723.288C6298.58 712.387 6292.74 693.699 6292.74 667.224V274.776L6125.72 288.792V755.992C6125.72 809.72 6140.51 848.653 6170.1 872.792C6199.69 896.931 6236.29 909 6279.89 909H6302.08C6339.46 905.107 6371.39 893.427 6397.86 873.96C6425.11 853.715 6441.86 829.187 6448.08 800.376L6451.59 801.544V891.48L6608.1 877.464V258.424L6442.24 272.44ZM6846.32 912.504V271.272L7034.37 253.752L7063.57 267.768C7086.93 244.408 7114.18 231.56 7145.33 229.224H7160.51C7173.75 229.224 7186.21 230.392 7197.89 232.728C7209.57 234.285 7220.86 236.232 7231.76 238.568L7348.56 296.968L7370.75 497.864C7334.93 483.848 7304.56 476.84 7279.65 476.84C7275.75 476.84 7271.47 476.84 7266.8 476.84C7262.9 476.84 7259.01 477.229 7255.12 478.008C7236.43 479.565 7219.3 486.573 7203.73 499.032C7188.15 511.491 7175.69 527.453 7166.35 546.92C7157.78 565.608 7153.5 585.075 7153.5 605.32V953.384L6963.12 970.904L6846.32 912.504ZM7025.02 546.92C7025.02 524.339 7030.08 502.925 7040.21 482.68C7050.33 461.656 7063.96 444.525 7081.09 431.288C7098.22 417.272 7116.9 409.485 7137.15 407.928C7141.82 407.149 7146.49 406.76 7151.17 406.76C7155.84 406.76 7160.12 406.76 7164.01 406.76C7178.03 406.76 7190.88 408.317 7202.56 411.432C7215.02 413.768 7227.48 417.272 7239.93 421.944L7220.08 249.08C7213.07 247.523 7204.5 245.965 7194.38 244.408C7184.26 242.072 7172.97 240.904 7160.51 240.904H7146.49C7119.24 243.24 7093.93 255.699 7070.57 278.28C7047.99 300.083 7033.2 328.115 7026.19 362.376H7022.69V266.6L6858 281.784V900.824L7025.02 885.64V546.92ZM7381.4 1024.63C7415.66 995.043 7447.2 964.285 7476.01 932.36C7504.82 901.213 7528.18 872.403 7546.09 845.928L7352.2 280.616L7560.1 261.928L7676.9 320.328L7713.11 441.8C7720.12 410.653 7725.96 381.064 7730.63 353.032C7736.08 325 7741.53 293.853 7746.98 259.592L7939.7 242.072L8056.5 300.472C8035.48 427.395 8008.61 543.027 7975.91 647.368C7943.21 751.709 7900.77 848.264 7848.6 937.032C7796.43 1026.58 7731.02 1112.23 7652.37 1193.99L7535.57 1135.59L7381.4 1024.63ZM7533.24 1119.24C7609.55 1040.59 7673.01 958.056 7723.62 871.624C7774.24 784.413 7815.51 690.195 7847.43 588.968C7879.36 487.741 7905.05 376.781 7924.52 256.088L7756.33 271.272C7746.2 342.131 7733.75 409.485 7718.95 473.336C7704.16 536.408 7686.25 596.755 7665.22 654.376L7550.76 274.776L7368.55 291.128L7558.93 848.264C7541.03 875.517 7517.28 905.107 7487.69 937.032C7458.88 969.736 7429.68 998.547 7400.09 1023.46L7533.24 1119.24ZM8746.25 930.024C8721.34 940.147 8695.64 945.208 8669.16 945.208C8645.03 945.208 8622.83 941.704 8602.59 934.696C8582.34 928.467 8566.77 922.237 8555.87 916.008C8521.61 957.277 8471.38 981.027 8405.2 987.256C8398.97 988.035 8392.74 988.424 8386.51 988.424C8380.28 988.424 8374.05 988.424 8367.82 988.424C8319.54 988.424 8275.16 979.859 8234.67 962.728C8194.18 946.376 8161.47 921.459 8136.56 887.976C8112.42 853.715 8100.35 811.667 8100.35 761.832C8100.35 708.104 8115.14 665.277 8144.73 633.352C8175.1 601.427 8220.26 571.059 8280.22 542.248L8220.65 522.392L8103.85 463.992C8123.32 396.248 8154.86 345.245 8198.46 310.984C8242.84 276.723 8293.07 256.867 8349.13 251.416C8356.14 250.637 8363.15 250.248 8370.16 250.248C8377.16 249.469 8383.78 249.08 8390.01 249.08C8446.08 249.08 8497.08 259.592 8543.02 280.616C8588.96 300.861 8625.56 330.061 8652.81 368.216C8680.07 405.592 8693.69 449.587 8693.69 500.2V722.12L8764.94 757.16L8746.25 930.024ZM8634.12 718.616C8615.44 727.181 8601.42 731.464 8592.08 731.464C8574.17 731.464 8565.21 719.784 8565.21 696.424V441.8C8565.21 321.885 8504.87 261.928 8384.17 261.928C8378.72 261.928 8373.27 261.928 8367.82 261.928C8362.37 261.928 8356.53 262.317 8350.3 263.096C8296.57 268.547 8248.68 287.235 8206.64 319.16C8164.59 351.085 8135 397.416 8117.87 458.152L8248.68 501.368C8257.25 474.893 8268.93 453.48 8283.72 437.128C8299.3 420.776 8316.82 411.821 8336.28 410.264C8338.62 410.264 8340.96 410.264 8343.29 410.264C8345.63 409.485 8347.58 409.096 8349.13 409.096C8367.04 409.096 8380.67 413.379 8390.01 421.944C8399.36 430.509 8404.03 442.189 8404.03 456.984C8404.03 473.336 8398.97 486.573 8388.84 496.696C8378.72 506.04 8364.71 514.995 8346.8 523.56L8294.24 548.088C8234.28 576.12 8188.73 605.709 8157.58 636.856C8127.21 667.224 8112.03 708.883 8112.03 761.832C8112.03 866.173 8161.08 918.344 8259.2 918.344C8263.87 918.344 8268.54 918.344 8273.21 918.344C8277.88 918.344 8282.56 917.955 8287.23 917.176C8324.6 914.061 8356.92 905.107 8384.17 890.312C8411.43 875.517 8432.06 854.493 8446.08 827.24C8451.53 843.592 8463.21 856.44 8481.12 865.784C8499.03 875.128 8520.05 879.8 8544.19 879.8C8569.88 879.8 8594.41 874.739 8617.77 864.616L8634.12 718.616ZM8319.93 781.688C8306.7 781.688 8295.79 778.184 8287.23 771.176C8278.66 763.389 8274.38 752.488 8274.38 738.472C8274.38 704.989 8291.51 680.072 8325.77 663.72L8349.13 652.04C8360.03 646.589 8370.55 641.528 8380.67 636.856C8391.57 631.405 8399.75 625.565 8405.2 619.336V699.928C8401.3 724.067 8391.96 743.533 8377.16 758.328C8362.37 772.344 8346.02 780.131 8328.11 781.688H8319.93Z" fill="white"/>
</svg>
